<svg width="2033" height="472" viewBox="0 0 2033 472" fill="none" xmlns="http://www.w3.org/2000/svg">
<path d="M664.857 472H2032.86V117.635L2024.08 106.941L2010.91 74.8588C2007.99 61.7882 2002.13 34.9341 2002.13 32.0824V53.4706L1984.58 71.2941C1980.19 79.6118 1971.41 96.96 1971.41 99.8118C1971.41 102.664 1968.49 115.259 1967.02 121.2L1953.86 106.941L1945.08 74.8588L1936.3 96.2471V121.2C1936.3 124.765 1931.91 135.459 1927.53 139.024C1924.01 141.875 1914.36 137.835 1909.97 135.459C1907.04 129.518 1901.19 116.922 1901.19 114.071C1901.19 111.219 1892.42 112.882 1888.03 114.071L1879.25 89.1177L1870.47 67.7294L1861.69 106.941L1852.92 114.071L1848.53 124.765V139.024L1839.75 135.459V149.718V163.976L1826.58 160.412L1822.2 139.024V117.635L1817.81 106.941V99.8118L1804.64 57.0353C1797.33 70.1059 1782.7 96.96 1782.7 99.8118C1782.7 102.664 1776.84 105.753 1773.92 106.941V121.2L1782.7 128.329C1784.16 133.082 1786.21 143.301 1782.7 146.153C1779.19 149.005 1769.53 137.835 1765.14 131.894L1760.75 117.635L1756.36 103.376L1747.59 114.071L1734.42 124.765V110.506L1725.64 99.8118L1730.03 81.9882L1716.86 53.4706L1703.7 81.9882L1708.09 96.2471L1690.53 99.8118V117.635C1690.53 120.487 1684.68 109.318 1681.75 103.376V92.6824V85.5529L1672.98 35.6471L1659.81 81.9882L1651.03 99.8118L1646.64 110.506L1651.03 114.071L1637.87 128.329L1633.48 114.071L1624.7 85.5529C1623.24 91.4941 1620.31 104.089 1620.31 106.941C1620.31 109.793 1614.46 117.635 1611.53 121.2L1607.15 142.588V131.894L1589.59 121.2L1585.2 103.376L1580.81 114.071L1572.04 131.894L1558.87 121.2V103.376L1550.09 85.5529V67.7294H1541.31V81.9882L1532.54 99.8118L1528.15 121.2L1514.98 124.765V92.6824H1506.2L1501.81 67.7294L1497.43 42.7765L1493.04 32.0824L1479.87 67.7294L1475.48 89.1177L1471.09 103.376L1462.32 106.941V124.765C1462.32 127.616 1456.46 125.953 1453.54 124.765V114.071L1444.76 103.376V85.5529H1435.98L1427.21 71.2941L1422.82 57.0353V46.3412L1409.65 21.3882L1405.26 46.3412L1396.48 60.6L1392.1 67.7294V81.9882H1383.32V96.2471L1370.15 103.376V89.1177V71.2941L1361.37 49.9059L1356.99 17.8235L1339.43 53.4706L1335.04 71.2941V85.5529L1326.26 96.2471L1321.88 81.9882L1313.1 74.8588L1308.71 53.4706L1295.54 42.7765L1286.77 57.0353L1269.21 85.5529L1273.6 96.2471L1260.43 114.071L1247.27 121.2V131.894L1229.71 124.765L1238.49 103.376L1229.71 89.1177L1225.32 53.4706L1216.55 81.9882L1207.77 92.6824V106.941V121.2H1198.99V110.506L1190.21 103.376L1185.82 96.2471L1190.21 89.1177L1185.82 71.2941L1177.05 35.6471L1163.88 49.9059V67.7294L1159.49 85.5529C1158.03 87.9294 1154.22 93.3953 1150.71 96.2471C1146.32 99.8118 1150.71 103.376 1155.1 103.376C1158.61 103.376 1156.57 110.506 1155.1 114.071C1153.64 116.447 1149.84 121.913 1146.32 124.765C1142.81 127.616 1144.86 130.706 1146.32 131.894L1150.71 146.153L1137.55 139.024L1128.77 131.894V121.2L1119.99 114.071L1115.6 92.6824L1102.44 49.9059V60.6L1093.66 92.6824L1098.05 103.376L1084.88 114.071V124.765V146.153L1080.49 124.765L1071.72 103.376L1062.94 85.5529V71.2941L1058.55 64.1647L1062.94 53.4706L1049.77 0L1032.22 42.7765H1040.99L1027.83 64.1647L1023.44 71.2941L1027.83 78.4235L1023.44 89.1177L1014.66 103.376H1023.44V114.071L1010.27 124.765L1005.88 149.718L997.107 160.412L975.163 153.282L988.329 149.718L975.163 131.894H988.329L966.385 67.7294L953.219 131.894L948.83 139.024L935.664 156.847H926.886V146.153H918.109L909.331 135.459L926.886 131.894L896.165 114.071L878.61 14.2588L861.055 92.6824L843.5 114.071L834.722 131.894L843.5 135.459C842.037 140.212 838.233 151.144 834.722 156.847C830.333 163.976 795.223 181.8 786.446 181.8C775.913 173.245 744.021 185.365 729.392 192.494H540.675L505.565 131.894L474.843 181.8L439.733 117.635L422.178 64.1647C417.789 84.3647 409.012 128.329 409.012 142.588C409.012 156.847 359.272 181.8 334.403 192.494C302.218 196.059 235.217 205.327 224.684 213.882C214.15 222.438 150.074 236.459 119.353 242.4L106.187 181.8L62.2991 263.788L31.5778 213.882L0.856443 263.788L0.856707 472H664.857Z" fill="#1A2A19"/>
</svg>
