<svg width="5120" height="1968" viewBox="0 0 5120 1968" fill="none" xmlns="http://www.w3.org/2000/svg">
<path fill-rule="evenodd" clip-rule="evenodd" d="M297.5 0.0133169C296.169 -0.133607 294.688 0.913185 293.259 4.2521C289.962 11.9531 279.066 82.6369 274.03 117.016C268.536 133.518 255.625 167.898 247.933 173.398C240.241 178.899 231.909 197.693 228.704 206.402C227.788 209.611 229.528 214.103 243.813 206.402C258.097 198.702 262.584 192.192 263.042 189.9C263.042 196.318 262.218 209.978 258.921 213.278C255.625 216.579 257.548 220.154 258.921 221.529L269.909 214.654L274.03 206.402C263.042 234.364 235.572 292.763 213.595 302.665C191.619 312.566 227.33 308.624 247.933 305.415C250.222 305.873 253.427 308.44 247.933 315.041C246.607 316.635 244.563 318.895 242.159 321.555C232.113 332.666 215.765 350.748 219.089 356.296C222.386 361.797 252.511 339.336 267.162 327.418C264.873 333.377 260.844 345.57 263.042 346.67C265.239 347.77 268.536 347.129 269.909 346.67V350.796C249.307 378.757 207.277 434.406 203.981 433.306C199.86 431.931 206.728 441.557 216.342 437.431C224.034 434.131 236.029 425.972 241.066 422.305L238.319 433.306C238.776 433.306 241.34 432.206 247.933 427.805C254.526 423.405 254.343 429.639 253.427 433.306L198.487 486.938C199.402 490.605 203.706 496.289 213.595 489.688C223.485 483.087 250.68 470.436 263.042 464.935C263.957 467.685 262.767 475.111 250.68 482.812C238.593 490.513 212.68 514.441 201.234 525.443C201.692 527.276 205.904 530.393 219.089 528.193C224.583 525.993 217.716 537.361 213.595 543.32C214.053 544.695 216.342 546.62 221.836 543.32C227.33 540.019 241.523 531.86 247.933 528.193C250.222 528.651 253.427 530.943 247.933 536.444C247.191 537.187 245.662 538.75 243.513 540.946C225.785 559.069 165.857 620.329 157.282 620.329C149.59 620.329 149.498 625.83 150.414 628.58L184.752 620.329C187.041 621.705 190.246 625.28 184.752 628.58C179.258 631.881 180.631 634.54 182.005 635.456L208.101 625.83C215.885 622.163 231.726 615.929 232.825 620.329C233.923 624.73 230.535 627.664 228.704 628.58C230.535 629.497 235.572 630.231 241.066 625.83C246.56 621.43 258.006 610.245 263.042 605.203C267.62 602.911 274.854 601.352 267.162 613.454C257.548 628.58 205.354 701.465 146.293 700.089C99.0448 698.989 175.137 708.799 219.089 713.841C209.475 726.218 183.653 750.146 157.282 746.845C130.91 743.545 88.6061 768.39 70.7505 781.225C69.377 784.892 71.8493 792.226 92.7266 792.226H138.052C142.631 791.768 149.04 793.051 138.052 801.852C127.064 810.653 82.1964 845.858 61.1359 862.36C55.6419 866.944 49.8732 874.736 70.7505 869.236C91.6278 863.735 84.0278 878.862 77.618 887.113C84.0278 885.279 98.7701 879.137 106.462 869.236C114.153 859.334 100.51 888.947 92.7266 904.99C101.426 907.282 120.746 906.915 128.438 887.113C136.13 867.31 180.173 835.773 201.234 822.48C187.957 839.899 164.973 874.186 179.258 871.986C183.711 871.3 188.25 870.785 192.598 870.292C205.68 868.808 217.028 867.521 219.089 862.36C221.287 856.859 252.054 846.316 267.162 841.732L278.15 829.356H293.259C291.155 842.158 288.204 848.727 286.093 853.426C282.233 862.017 281.183 864.355 293.259 887.113H293.5H301.5V872.205C305.054 865.503 306.599 862.036 306.869 858.472C307.282 853.003 304.692 847.308 301.741 829.356H316.85L327.838 841.732C342.946 846.316 373.713 856.859 375.911 862.36C377.972 867.521 389.32 868.808 402.402 870.292C406.75 870.785 411.289 871.3 415.742 871.986C430.027 874.186 407.043 839.899 393.766 822.48C414.827 835.773 458.87 867.31 466.562 887.113C474.254 906.915 493.574 907.282 502.273 904.99C494.49 888.947 480.847 859.334 488.538 869.236C496.23 879.137 510.972 885.279 517.382 887.113C510.972 878.862 503.372 863.735 524.249 869.236C545.127 874.736 539.358 866.944 533.864 862.36C512.804 845.858 467.936 810.653 456.948 801.852C445.96 793.051 452.369 791.768 456.948 792.226H502.273C523.151 792.226 525.623 784.892 524.249 781.225C506.394 768.39 464.09 743.545 437.718 746.845C411.347 750.146 385.525 726.218 375.911 713.841C419.863 708.799 495.955 698.989 448.707 700.089C389.646 701.465 337.452 628.58 327.838 613.454C320.146 601.352 327.38 602.911 331.958 605.203C336.995 610.245 348.44 621.43 353.934 625.83C359.428 630.231 364.465 629.497 366.296 628.58C364.465 627.664 361.077 624.73 362.175 620.329C363.274 615.929 379.115 622.163 386.899 625.83L412.995 635.456C414.369 634.54 415.742 631.881 410.248 628.58C404.754 625.28 407.959 621.705 410.248 620.329L444.586 628.58C445.502 625.83 445.41 620.329 437.718 620.329C429.143 620.329 369.216 559.07 351.487 540.947C349.338 538.75 347.809 537.187 347.067 536.444C341.573 530.943 344.778 528.651 347.067 528.193C353.477 531.86 367.67 540.019 373.164 543.32C378.658 546.62 380.947 544.695 381.405 543.32C377.284 537.361 370.417 525.993 375.911 528.193C389.096 530.393 393.308 527.276 393.766 525.443C382.32 514.441 356.407 490.513 344.32 482.812C332.233 475.111 331.043 467.685 331.958 464.935C344.32 470.436 371.515 483.087 381.405 489.688C391.294 496.289 395.598 490.605 396.513 486.938L341.573 433.306C340.657 429.639 340.474 423.405 347.067 427.805C353.66 432.206 356.224 433.306 356.681 433.306L353.934 422.305C358.971 425.972 370.966 434.131 378.658 437.431C388.272 441.557 395.14 431.931 391.019 433.306C387.723 434.406 345.693 378.757 325.091 350.796V346.67C326.464 347.129 329.761 347.77 331.958 346.67C334.156 345.57 330.127 333.377 327.838 327.418C342.489 339.336 372.614 361.797 375.911 356.296C379.235 350.748 362.887 332.666 352.841 321.554C350.437 318.895 348.393 316.635 347.067 315.041C341.573 308.44 344.778 305.873 347.067 305.415C367.67 308.624 403.381 312.566 381.405 302.665C359.428 292.763 331.958 234.364 320.97 206.402L325.091 214.654L336.079 221.529C337.452 220.154 339.375 216.579 336.079 213.278C332.782 209.978 331.958 196.318 331.958 189.9C332.416 192.192 336.903 198.702 351.187 206.402C365.472 214.103 367.212 209.611 366.296 206.402C363.091 197.693 354.759 178.899 347.067 173.398C339.375 167.898 326.464 133.518 320.97 117.016C315.934 82.6369 305.038 11.9531 301.741 4.2521C300.312 0.913202 298.831 -0.133596 297.5 0.0133169Z" fill="#243422"/>
<path fill-rule="evenodd" clip-rule="evenodd" d="M755.5 337.013C754.169 336.866 752.688 337.913 751.259 341.252C747.962 348.953 737.066 419.637 732.03 454.016C726.536 470.518 713.625 504.898 705.933 510.398C698.241 515.899 689.909 534.693 686.704 543.402C685.788 546.611 687.528 551.103 701.813 543.402C716.097 535.702 720.584 529.192 721.042 526.9C721.042 533.318 720.218 546.978 716.921 550.278C713.625 553.579 715.548 557.154 716.921 558.529L727.909 551.654L732.03 543.402C721.042 571.364 693.572 629.763 671.595 639.665C649.619 649.566 685.33 645.624 705.933 642.415C708.222 642.873 711.427 645.44 705.933 652.041C704.607 653.635 702.563 655.895 700.159 658.555C690.113 669.666 673.765 687.748 677.089 693.296C680.386 698.797 710.511 676.336 725.162 664.418C722.873 670.377 718.844 682.57 721.042 683.67C723.239 684.77 726.536 684.129 727.909 683.67V687.796C707.307 715.757 665.277 771.406 661.981 770.306C657.86 768.931 664.728 778.557 674.342 774.431C682.034 771.131 694.029 762.972 699.066 759.305L696.319 770.306C696.776 770.306 699.34 769.206 705.933 764.805C712.526 760.405 712.343 766.639 711.427 770.306L656.487 823.938C657.402 827.605 661.706 833.289 671.595 826.688C681.485 820.087 708.68 807.436 721.042 801.935C721.957 804.685 720.767 812.111 708.68 819.812C696.593 827.513 670.68 851.441 659.234 862.443C659.692 864.276 663.904 867.393 677.089 865.193C682.583 862.993 675.716 874.361 671.595 880.32C672.053 881.695 674.342 883.62 679.836 880.32C685.33 877.019 699.523 868.86 705.933 865.193C708.222 865.651 711.427 867.943 705.933 873.444C705.191 874.187 703.662 875.75 701.513 877.946C683.785 896.069 623.857 957.329 615.282 957.329C607.59 957.329 607.498 962.83 608.414 965.58L642.752 957.329C645.041 958.705 648.246 962.28 642.752 965.58C637.258 968.881 638.631 971.54 640.005 972.456L666.101 962.83C673.885 959.163 689.726 952.929 690.825 957.329C691.923 961.73 688.535 964.664 686.704 965.58C688.535 966.497 693.572 967.231 699.066 962.83C704.56 958.43 716.006 947.245 721.042 942.203C725.62 939.911 732.854 938.352 725.162 950.454C715.548 965.58 663.354 1038.46 604.293 1037.09C557.045 1035.99 633.137 1045.8 677.089 1050.84C667.475 1063.22 641.653 1087.15 615.282 1083.85C588.91 1080.54 546.606 1105.39 528.751 1118.22C527.377 1121.89 529.849 1129.23 550.727 1129.23H596.052C600.631 1128.77 607.04 1130.05 596.052 1138.85C585.064 1147.65 540.196 1182.86 519.136 1199.36C513.642 1203.94 507.873 1211.74 528.751 1206.24C549.628 1200.74 542.028 1215.86 535.618 1224.11C542.028 1222.28 556.77 1216.14 564.462 1206.24C572.153 1196.33 558.51 1225.95 550.727 1241.99C559.426 1244.28 578.746 1243.92 586.438 1224.11C594.13 1204.31 638.173 1172.77 659.234 1159.48C645.957 1176.9 622.973 1211.19 637.258 1208.99C641.711 1208.3 646.25 1207.79 650.598 1207.29C663.68 1205.81 675.028 1204.52 677.089 1199.36C679.287 1193.86 710.054 1183.32 725.162 1178.73L736.15 1166.36H751.259C749.155 1179.16 746.204 1185.73 744.093 1190.43C740.233 1199.02 739.183 1201.35 751.259 1224.11H751.5H759.5V1209.2C763.054 1202.5 764.599 1199.04 764.869 1195.47C765.282 1190 762.692 1184.31 759.741 1166.36H774.85L785.838 1178.73C800.946 1183.32 831.713 1193.86 833.911 1199.36C835.972 1204.52 847.32 1205.81 860.402 1207.29C864.75 1207.79 869.289 1208.3 873.742 1208.99C888.027 1211.19 865.043 1176.9 851.766 1159.48C872.827 1172.77 916.87 1204.31 924.562 1224.11C932.254 1243.92 951.574 1244.28 960.273 1241.99C952.49 1225.95 938.847 1196.33 946.538 1206.24C954.23 1216.14 968.972 1222.28 975.382 1224.11C968.972 1215.86 961.372 1200.74 982.249 1206.24C1003.13 1211.74 997.358 1203.94 991.864 1199.36C970.804 1182.86 925.936 1147.65 914.948 1138.85C903.96 1130.05 910.369 1128.77 914.948 1129.23H960.273C981.151 1129.23 983.623 1121.89 982.249 1118.22C964.394 1105.39 922.09 1080.54 895.718 1083.85C869.347 1087.15 843.525 1063.22 833.911 1050.84C877.863 1045.8 953.955 1035.99 906.707 1037.09C847.646 1038.46 795.452 965.58 785.838 950.454C778.146 938.352 785.38 939.911 789.958 942.203C794.995 947.245 806.44 958.43 811.934 962.83C817.428 967.231 822.465 966.497 824.296 965.58C822.465 964.664 819.077 961.73 820.175 957.329C821.274 952.929 837.115 959.163 844.899 962.83L870.995 972.456C872.369 971.54 873.742 968.881 868.248 965.58C862.754 962.28 865.959 958.705 868.248 957.329L902.586 965.58C903.502 962.83 903.41 957.329 895.718 957.329C887.143 957.329 827.216 896.07 809.487 877.947C807.338 875.75 805.809 874.187 805.067 873.444C799.573 867.943 802.778 865.651 805.067 865.193C811.477 868.86 825.67 877.019 831.164 880.32C836.658 883.62 838.947 881.695 839.405 880.32C835.284 874.361 828.417 862.993 833.911 865.193C847.096 867.393 851.308 864.276 851.766 862.443C840.32 851.441 814.407 827.513 802.32 819.812C790.233 812.111 789.043 804.685 789.958 801.935C802.32 807.436 829.515 820.087 839.405 826.688C849.294 833.289 853.598 827.605 854.513 823.938L799.573 770.306C798.657 766.639 798.474 760.405 805.067 764.805C811.66 769.206 814.224 770.306 814.681 770.306L811.934 759.305C816.971 762.972 828.966 771.131 836.658 774.431C846.272 778.557 853.14 768.931 849.019 770.306C845.723 771.406 803.693 715.757 783.091 687.796V683.67C784.464 684.129 787.761 684.77 789.958 683.67C792.156 682.57 788.127 670.377 785.838 664.418C800.489 676.336 830.614 698.797 833.911 693.296C837.235 687.748 820.887 669.666 810.841 658.554C808.437 655.895 806.393 653.635 805.067 652.041C799.573 645.44 802.778 642.873 805.067 642.415C825.67 645.624 861.381 649.566 839.405 639.665C817.428 629.763 789.958 571.364 778.97 543.402L783.091 551.654L794.079 558.529C795.452 557.154 797.375 553.579 794.079 550.278C790.782 546.978 789.958 533.318 789.958 526.9C790.416 529.192 794.903 535.702 809.187 543.402C823.472 551.103 825.212 546.611 824.296 543.402C821.091 534.693 812.759 515.899 805.067 510.398C797.375 504.898 784.464 470.518 778.97 454.016C773.934 419.637 763.038 348.953 759.741 341.252C758.312 337.913 756.831 336.866 755.5 337.013Z" fill="#243422"/>
<path fill-rule="evenodd" clip-rule="evenodd" d="M4821.5 232.014C4822.76 231.86 4824.17 232.955 4825.53 236.445C4828.66 244.494 4839.02 318.377 4843.8 354.312C4849.03 371.561 4861.29 407.496 4868.6 413.246C4875.91 418.995 4883.83 438.64 4886.88 447.744C4887.75 451.097 4886.09 455.793 4872.52 447.744C4858.95 439.694 4854.68 432.89 4854.25 430.495C4854.25 437.203 4855.03 451.481 4858.16 454.931C4861.29 458.38 4859.47 462.118 4858.16 463.555L4847.72 456.368L4843.8 447.744C4854.25 476.971 4880.35 538.013 4901.24 548.362C4922.12 558.711 4888.18 554.591 4868.6 551.237C4866.43 551.716 4863.38 554.399 4868.6 561.299C4869.86 562.964 4871.81 565.327 4874.09 568.107C4883.64 579.721 4899.17 598.622 4896.01 604.421C4892.88 610.171 4864.25 586.693 4850.33 574.235C4852.51 580.464 4856.33 593.209 4854.25 594.359C4852.16 595.509 4849.03 594.838 4847.72 594.359V598.671C4867.3 627.899 4907.24 686.066 4910.37 684.916C4914.29 683.478 4907.76 693.54 4898.62 689.228C4891.32 685.778 4879.92 677.25 4875.13 673.417L4877.74 684.916C4877.31 684.916 4874.87 683.766 4868.6 679.166C4862.34 674.566 4862.51 681.083 4863.38 684.916L4915.59 740.975C4914.72 744.808 4910.63 750.749 4901.24 743.85C4891.84 736.95 4865.99 723.726 4854.25 717.976C4853.38 720.851 4854.51 728.613 4865.99 736.663C4877.48 744.712 4902.11 769.723 4912.98 781.222C4912.55 783.139 4908.54 786.397 4896.01 784.097C4890.79 781.797 4897.32 793.68 4901.24 799.908C4900.8 801.346 4898.62 803.358 4893.4 799.908C4888.18 796.459 4874.7 787.93 4868.6 784.097C4866.43 784.576 4863.38 786.972 4868.6 792.721C4869.31 793.498 4870.76 795.132 4872.8 797.428C4889.65 816.372 4946.6 880.403 4954.75 880.403C4962.06 880.403 4962.15 886.153 4961.28 889.028L4928.65 880.403C4926.47 881.841 4923.42 885.578 4928.65 889.028C4933.87 892.478 4932.56 895.257 4931.26 896.215L4906.46 886.153C4899.06 882.32 4884.01 875.804 4882.96 880.403C4881.92 885.003 4885.14 888.069 4886.88 889.028C4885.14 889.986 4880.35 890.753 4875.13 886.153C4869.91 881.553 4859.03 869.862 4854.25 864.592C4849.9 862.196 4843.02 860.567 4850.33 873.216C4859.47 889.028 4909.07 965.21 4965.19 963.773C5010.09 962.623 4937.78 972.877 4896.01 978.147C4905.15 991.084 4929.69 1016.09 4954.75 1012.64C4979.81 1009.2 5020.01 1035.16 5036.98 1048.58C5038.29 1052.41 5035.94 1060.08 5016.1 1060.08H4973.02C4968.67 1059.6 4962.58 1060.94 4973.02 1070.14C4983.47 1079.34 5026.11 1116.14 5046.12 1133.39C5051.34 1138.18 5056.82 1146.32 5036.98 1140.57C5017.14 1134.82 5024.36 1150.64 5030.46 1159.26C5024.36 1157.34 5010.36 1150.92 5003.05 1140.57C4995.74 1130.22 5008.7 1161.18 5016.1 1177.95C5007.83 1180.34 4989.47 1179.96 4982.16 1159.26C4974.85 1138.56 4933 1105.6 4912.98 1091.7C4925.6 1109.91 4947.44 1145.75 4933.87 1143.45C4929.63 1142.73 4925.32 1142.19 4921.19 1141.68C4908.76 1140.13 4897.97 1138.78 4896.01 1133.39C4893.93 1127.64 4864.69 1116.62 4850.33 1111.83L4839.89 1098.89H4825.53C4828.34 1117.7 4830.81 1123.64 4830.4 1129.37C4830.14 1133.08 4828.66 1136.7 4825.3 1143.68V1159.26H4817.7H4817.47C4805.99 1135.47 4806.99 1133.03 4810.66 1124.05C4812.67 1119.14 4815.47 1112.27 4817.47 1098.89H4803.11L4792.67 1111.83C4778.31 1116.62 4749.07 1127.64 4746.99 1133.39C4745.03 1138.78 4734.24 1140.13 4721.81 1141.68C4717.68 1142.19 4713.37 1142.73 4709.13 1143.45C4695.56 1145.75 4717.4 1109.91 4730.02 1091.7C4710 1105.6 4668.15 1138.56 4660.84 1159.26C4653.53 1179.96 4635.17 1180.34 4626.9 1177.95C4634.3 1161.18 4647.26 1130.22 4639.95 1140.57C4632.64 1150.92 4618.64 1157.34 4612.54 1159.26C4618.64 1150.64 4625.86 1134.82 4606.02 1140.57C4586.18 1146.32 4591.66 1138.18 4596.88 1133.39C4616.89 1116.14 4659.53 1079.34 4669.98 1070.14C4680.42 1060.94 4674.33 1059.6 4669.98 1060.08H4626.9C4607.06 1060.08 4604.71 1052.41 4606.02 1048.58C4622.99 1035.16 4663.19 1009.2 4688.25 1012.64C4713.31 1016.09 4737.85 991.084 4746.99 978.147C4705.22 972.877 4632.91 962.623 4677.81 963.773C4733.93 965.21 4783.53 889.028 4792.67 873.216C4799.98 860.567 4793.1 862.196 4788.75 864.592C4783.97 869.862 4773.09 881.553 4767.87 886.153C4762.65 890.753 4757.86 889.986 4756.12 889.028C4757.86 888.069 4761.08 885.003 4760.04 880.403C4758.99 875.804 4743.94 882.32 4736.54 886.153L4711.74 896.215C4710.44 895.257 4709.13 892.478 4714.35 889.028C4719.58 885.578 4716.53 881.841 4714.35 880.403L4681.72 889.028C4680.85 886.153 4680.94 880.403 4688.25 880.403C4696.4 880.403 4753.35 816.372 4770.2 797.428C4772.24 795.132 4773.69 793.498 4774.4 792.721C4779.62 786.972 4776.57 784.576 4774.4 784.097C4768.3 787.93 4754.82 796.459 4749.6 799.908C4744.38 803.358 4742.2 801.346 4741.76 799.908C4745.68 793.68 4752.21 781.797 4746.99 784.097C4734.46 786.397 4730.45 783.139 4730.02 781.222C4740.89 769.723 4765.52 744.712 4777.01 736.663C4788.49 728.613 4789.62 720.851 4788.75 717.976C4777.01 723.726 4751.16 736.95 4741.76 743.85C4732.37 750.749 4728.28 744.808 4727.41 740.975L4779.62 684.916C4780.49 681.083 4780.66 674.566 4774.4 679.166C4768.13 683.766 4765.69 684.916 4765.26 684.916L4767.87 673.417C4763.08 677.25 4751.68 685.778 4744.38 689.228C4735.24 693.54 4728.71 683.478 4732.63 684.916C4735.76 686.066 4775.7 627.899 4795.28 598.671V594.359C4793.97 594.838 4790.84 595.509 4788.75 594.359C4786.67 593.209 4790.49 580.464 4792.67 574.235C4778.75 586.693 4750.12 610.171 4746.99 604.421C4743.83 598.622 4759.36 579.721 4768.91 568.107C4771.19 565.327 4773.14 562.964 4774.4 561.299C4779.62 554.399 4776.57 551.716 4774.4 551.237C4754.82 554.591 4720.88 558.711 4741.76 548.362C4762.65 538.013 4788.75 476.971 4799.2 447.744L4795.28 456.368L4784.84 463.555C4783.53 462.118 4781.71 458.38 4784.84 454.931C4787.97 451.481 4788.75 437.203 4788.75 430.495C4788.32 432.89 4784.05 439.694 4770.48 447.744C4756.91 455.793 4755.25 451.097 4756.12 447.744C4759.17 438.64 4767.09 418.995 4774.4 413.246C4781.71 407.496 4793.97 371.561 4799.2 354.312C4803.98 318.377 4814.34 244.494 4817.47 236.445C4818.83 232.955 4820.24 231.86 4821.5 232.014Z" fill="#243422"/>
<path fill-rule="evenodd" clip-rule="evenodd" d="M1312.88 716.009C1313.75 715.912 1314.73 716.601 1315.67 718.797C1317.84 723.864 1325 770.365 1328.32 792.982C1331.93 803.838 1340.43 826.455 1345.49 830.074C1350.55 833.693 1356.03 846.057 1358.14 851.787C1358.74 853.898 1357.59 856.853 1348.2 851.787C1338.8 846.72 1335.85 842.438 1335.55 840.93C1335.55 845.152 1336.09 854.139 1338.26 856.31C1340.43 858.481 1339.16 860.834 1338.26 861.738L1331.03 857.215L1328.32 851.787C1335.55 870.182 1353.62 908.601 1368.08 915.115C1382.53 921.629 1359.04 919.035 1345.49 916.924C1343.98 917.226 1341.87 918.915 1345.49 923.257C1346.36 924.306 1347.7 925.792 1349.28 927.542C1355.89 934.852 1366.65 946.748 1364.46 950.398C1362.29 954.017 1342.47 939.24 1332.83 931.399C1334.34 935.32 1336.99 943.341 1335.55 944.065C1334.1 944.789 1331.93 944.367 1331.03 944.065V946.779C1344.58 965.174 1372.23 1001.78 1374.4 1001.06C1377.11 1000.16 1372.59 1006.49 1366.27 1003.77C1361.21 1001.6 1353.32 996.235 1350 993.823L1351.81 1001.06C1351.51 1001.06 1349.82 1000.34 1345.49 997.442C1341.15 994.547 1341.27 998.648 1341.87 1001.06L1378.01 1036.34C1377.41 1038.76 1374.58 1042.5 1368.08 1038.15C1361.57 1033.81 1343.68 1025.49 1335.55 1021.87C1334.94 1023.68 1335.73 1028.56 1343.68 1033.63C1351.63 1038.7 1368.68 1054.44 1376.21 1061.67C1375.91 1062.88 1373.14 1064.93 1364.46 1063.48C1360.85 1062.04 1365.36 1069.52 1368.08 1073.44C1367.77 1074.34 1366.27 1075.61 1362.65 1073.44C1359.04 1071.26 1349.7 1065.9 1345.49 1063.48C1343.98 1063.79 1341.87 1065.29 1345.49 1068.91C1345.97 1069.4 1346.98 1070.43 1348.39 1071.87C1360.06 1083.8 1399.48 1124.1 1405.12 1124.1C1410.18 1124.1 1410.24 1127.72 1409.64 1129.53L1387.05 1124.1C1385.54 1125 1383.44 1127.36 1387.05 1129.53C1390.66 1131.7 1389.76 1133.45 1388.86 1134.05L1371.69 1127.72C1366.57 1125.3 1356.15 1121.2 1355.42 1124.1C1354.7 1126.99 1356.93 1128.92 1358.14 1129.53C1356.93 1130.13 1353.62 1130.61 1350 1127.72C1346.39 1124.82 1338.86 1117.46 1335.55 1114.15C1332.53 1112.64 1327.77 1111.61 1332.83 1119.57C1339.16 1129.53 1373.5 1177.47 1412.35 1176.57C1443.43 1175.85 1393.38 1182.3 1364.46 1185.62C1370.79 1193.76 1387.77 1209.5 1405.12 1207.33C1422.47 1205.16 1450.3 1221.5 1462.05 1229.95C1462.95 1232.36 1461.33 1237.18 1447.59 1237.18H1417.77C1414.76 1236.88 1410.54 1237.73 1417.77 1243.52C1425 1249.31 1454.52 1272.47 1468.37 1283.32C1471.99 1286.34 1475.78 1291.47 1462.05 1287.85C1448.31 1284.23 1453.31 1294.18 1457.53 1299.61C1453.31 1298.4 1443.62 1294.36 1438.56 1287.85C1433.5 1281.33 1442.47 1300.81 1447.59 1311.37C1441.87 1312.88 1429.16 1312.64 1424.1 1299.61C1419.04 1286.58 1390.06 1265.83 1376.21 1257.09C1384.94 1268.55 1400.06 1291.1 1390.66 1289.66C1387.74 1289.21 1384.75 1288.87 1381.89 1288.54C1373.28 1287.57 1365.82 1286.72 1364.46 1283.32C1363.01 1279.7 1342.77 1272.77 1332.83 1269.75L1325.61 1261.61H1315.67C1317.61 1273.42 1319.31 1277.17 1319.04 1280.77C1318.86 1283.11 1317.85 1285.39 1315.51 1289.8V1299.61H1310.24H1310.09C1302.14 1284.64 1302.83 1283.1 1305.37 1277.45C1306.76 1274.36 1308.7 1270.03 1310.09 1261.61H1300.15L1292.92 1269.75C1282.98 1272.77 1262.74 1279.7 1261.29 1283.32C1259.94 1286.72 1252.47 1287.57 1243.86 1288.54C1241 1288.87 1238.02 1289.21 1235.09 1289.66C1225.69 1291.1 1240.81 1268.55 1249.55 1257.09C1235.69 1265.83 1206.72 1286.58 1201.65 1299.61C1196.59 1312.64 1183.88 1312.88 1178.16 1311.37C1183.28 1300.81 1192.26 1281.33 1187.2 1287.85C1182.14 1294.36 1172.44 1298.4 1168.22 1299.61C1172.44 1294.18 1177.44 1284.23 1163.7 1287.85C1149.97 1291.47 1153.76 1286.34 1157.38 1283.32C1171.23 1272.47 1200.75 1249.31 1207.98 1243.52C1215.21 1237.73 1210.99 1236.88 1207.98 1237.18H1178.16C1164.43 1237.18 1162.8 1232.36 1163.7 1229.95C1175.45 1221.5 1203.28 1205.16 1220.63 1207.33C1237.98 1209.5 1254.97 1193.76 1261.29 1185.62C1232.38 1182.3 1182.32 1175.85 1213.4 1176.57C1252.26 1177.47 1286.59 1129.53 1292.92 1119.57C1297.98 1111.61 1293.22 1112.64 1290.21 1114.15C1286.89 1117.46 1279.36 1124.82 1275.75 1127.72C1272.14 1130.61 1268.82 1130.13 1267.62 1129.53C1268.82 1128.92 1271.05 1126.99 1270.33 1124.1C1269.61 1121.2 1259.18 1125.3 1254.06 1127.72L1236.9 1134.05C1235.99 1133.45 1235.09 1131.7 1238.7 1129.53C1242.32 1127.36 1240.21 1125 1238.7 1124.1L1216.11 1129.53C1215.51 1127.72 1215.57 1124.1 1220.63 1124.1C1226.27 1124.1 1265.7 1083.8 1277.36 1071.87C1278.77 1070.43 1279.78 1069.4 1280.27 1068.91C1283.88 1065.29 1281.77 1063.79 1280.27 1063.48C1276.05 1065.9 1266.71 1071.26 1263.1 1073.44C1259.49 1075.61 1257.98 1074.34 1257.68 1073.44C1260.39 1069.52 1264.91 1062.04 1261.29 1063.48C1252.62 1064.93 1249.85 1062.88 1249.55 1061.67C1257.08 1054.44 1274.12 1038.7 1282.07 1033.63C1290.03 1028.56 1290.81 1023.68 1290.21 1021.87C1282.07 1025.49 1264.18 1033.81 1257.68 1038.15C1251.17 1042.5 1248.34 1038.76 1247.74 1036.34L1283.88 1001.06C1284.48 998.648 1284.6 994.547 1280.27 997.442C1275.93 1000.34 1274.24 1001.06 1273.94 1001.06L1275.75 993.823C1272.44 996.235 1264.55 1001.6 1259.49 1003.77C1253.16 1006.49 1248.64 1000.16 1251.35 1001.06C1253.52 1001.78 1281.17 965.174 1294.73 946.779V944.065C1293.82 944.367 1291.65 944.789 1290.21 944.065C1288.76 943.341 1291.41 935.32 1292.92 931.399C1283.28 939.24 1263.46 954.017 1261.29 950.398C1259.1 946.748 1269.86 934.852 1276.47 927.542C1278.05 925.793 1279.4 924.306 1280.27 923.257C1283.88 918.915 1281.77 917.226 1280.27 916.924C1266.71 919.035 1243.22 921.629 1257.68 915.115C1272.14 908.601 1290.21 870.182 1297.44 851.787L1294.73 857.215L1287.5 861.738C1286.59 860.834 1285.33 858.481 1287.5 856.31C1289.67 854.139 1290.21 845.152 1290.21 840.93C1289.91 842.438 1286.95 846.72 1277.56 851.787C1268.16 856.853 1267.01 853.898 1267.62 851.787C1269.73 846.057 1275.21 833.693 1280.27 830.074C1285.33 826.455 1293.82 803.838 1297.44 792.982C1300.75 770.365 1307.92 723.864 1310.09 718.797C1311.03 716.601 1312 715.912 1312.88 716.009Z" fill="#243422"/>
<path fill-rule="evenodd" clip-rule="evenodd" d="M1742 1019.01C1742.73 1018.91 1743.54 1019.6 1744.32 1021.8C1746.12 1026.86 1752.08 1073.36 1754.83 1095.98C1757.83 1106.84 1764.89 1129.46 1769.09 1133.07C1773.3 1136.69 1777.85 1149.06 1779.6 1154.79C1780.1 1156.9 1779.15 1159.85 1771.34 1154.79C1763.54 1149.72 1761.08 1145.44 1760.83 1143.93C1760.83 1148.15 1761.28 1157.14 1763.09 1159.31C1764.89 1161.48 1763.84 1163.83 1763.09 1164.74L1757.08 1160.21L1754.83 1154.79C1760.83 1173.18 1775.85 1211.6 1787.86 1218.11C1799.87 1224.63 1780.35 1222.04 1769.09 1219.92C1767.84 1220.23 1766.09 1221.91 1769.09 1226.26C1769.82 1227.31 1770.93 1228.79 1772.25 1230.54C1777.74 1237.85 1786.68 1249.75 1784.86 1253.4C1783.06 1257.02 1766.59 1242.24 1758.58 1234.4C1759.83 1238.32 1762.04 1246.34 1760.83 1247.07C1759.63 1247.79 1757.83 1247.37 1757.08 1247.07V1249.78C1768.34 1268.17 1791.31 1304.78 1793.12 1304.06C1795.37 1303.16 1791.61 1309.49 1786.36 1306.77C1782.16 1304.6 1775.6 1299.24 1772.85 1296.82L1774.35 1304.06C1774.1 1304.06 1772.7 1303.34 1769.09 1300.44C1765.49 1297.55 1765.59 1301.65 1766.09 1304.06L1796.12 1339.34C1795.62 1341.76 1793.27 1345.5 1787.86 1341.15C1782.46 1336.81 1767.59 1328.49 1760.83 1324.87C1760.33 1326.68 1760.98 1331.56 1767.59 1336.63C1774.2 1341.7 1788.36 1357.44 1794.62 1364.67C1794.37 1365.88 1792.07 1367.93 1784.86 1366.48C1781.86 1365.04 1785.61 1372.52 1787.86 1376.44C1787.61 1377.34 1786.36 1378.61 1783.36 1376.44C1780.35 1374.26 1772.6 1368.9 1769.09 1366.48C1767.84 1366.79 1766.09 1368.29 1769.09 1371.91C1769.5 1372.4 1770.33 1373.43 1771.51 1374.87C1781.2 1386.8 1813.95 1427.1 1818.64 1427.1C1822.85 1427.1 1822.9 1430.72 1822.39 1432.53L1803.63 1427.1C1802.38 1428 1800.62 1430.36 1803.63 1432.53C1806.63 1434.7 1805.88 1436.45 1805.13 1437.05L1790.86 1430.72C1786.61 1428.3 1777.95 1424.2 1777.35 1427.1C1776.75 1429.99 1778.6 1431.92 1779.6 1432.53C1778.6 1433.13 1775.85 1433.61 1772.85 1430.72C1769.84 1427.82 1763.59 1420.46 1760.83 1417.15C1758.33 1415.64 1754.38 1414.61 1758.58 1422.57C1763.84 1432.53 1792.37 1480.47 1824.65 1479.57C1850.47 1478.85 1808.88 1485.3 1784.86 1488.62C1790.11 1496.76 1804.23 1512.5 1818.64 1510.33C1833.06 1508.16 1856.18 1524.5 1865.94 1532.95C1866.69 1535.36 1865.34 1540.18 1853.93 1540.18H1829.15C1826.65 1539.88 1823.15 1540.73 1829.15 1546.52C1835.16 1552.31 1859.68 1575.47 1871.19 1586.32C1874.2 1589.34 1877.35 1594.47 1865.94 1590.85C1854.53 1587.23 1858.68 1597.18 1862.18 1602.61C1858.68 1601.4 1850.62 1597.36 1846.42 1590.85C1842.21 1584.33 1849.67 1603.81 1853.93 1614.37C1849.17 1615.88 1838.61 1615.64 1834.41 1602.61C1830.2 1589.58 1806.13 1568.83 1794.62 1560.09C1801.87 1571.55 1814.44 1594.1 1806.63 1592.66C1804.2 1592.21 1801.71 1591.87 1799.34 1591.54C1792.19 1590.57 1785.98 1589.72 1784.86 1586.32C1783.66 1582.7 1766.84 1575.77 1758.58 1572.75L1752.58 1564.61H1744.32C1745.94 1576.48 1747.36 1580.2 1747.12 1583.82C1746.96 1586.14 1746.11 1588.42 1744.19 1592.8V1602.61H1739.81H1739.68C1733.08 1587.64 1733.66 1586.1 1735.77 1580.45C1736.92 1577.36 1738.53 1573.03 1739.68 1564.61H1731.42L1725.42 1572.75C1717.16 1575.77 1700.34 1582.7 1699.14 1586.32C1698.02 1589.72 1691.81 1590.57 1684.66 1591.54C1682.29 1591.87 1679.8 1592.21 1677.37 1592.66C1669.56 1594.1 1682.13 1571.55 1689.38 1560.09C1677.87 1568.83 1653.8 1589.58 1649.59 1602.61C1645.39 1615.64 1634.83 1615.88 1630.07 1614.37C1634.33 1603.81 1641.79 1584.33 1637.58 1590.85C1633.38 1597.36 1625.32 1601.4 1621.82 1602.61C1625.32 1597.18 1629.47 1587.23 1618.06 1590.85C1606.65 1594.47 1609.8 1589.34 1612.81 1586.32C1624.32 1575.47 1648.84 1552.31 1654.85 1546.52C1660.85 1540.73 1657.35 1539.88 1654.85 1540.18H1630.07C1618.66 1540.18 1617.31 1535.36 1618.06 1532.95C1627.82 1524.5 1650.94 1508.16 1665.36 1510.33C1679.77 1512.5 1693.89 1496.76 1699.14 1488.62C1675.12 1485.3 1633.53 1478.85 1659.35 1479.57C1691.63 1480.47 1720.16 1432.53 1725.42 1422.57C1729.62 1414.61 1725.67 1415.64 1723.17 1417.15C1720.41 1420.46 1714.16 1427.82 1711.15 1430.72C1708.15 1433.61 1705.4 1433.13 1704.4 1432.53C1705.4 1431.92 1707.25 1429.99 1706.65 1427.1C1706.05 1424.2 1697.39 1428.3 1693.14 1430.72L1678.87 1437.05C1678.12 1436.45 1677.37 1434.7 1680.37 1432.53C1683.38 1430.36 1681.62 1428 1680.37 1427.1L1661.61 1432.53C1661.1 1430.72 1661.15 1427.1 1665.36 1427.1C1670.05 1427.1 1702.8 1386.8 1712.49 1374.87C1713.67 1373.43 1714.5 1372.4 1714.91 1371.91C1717.91 1368.29 1716.16 1366.79 1714.91 1366.48C1711.4 1368.9 1703.65 1374.26 1700.64 1376.44C1697.64 1378.61 1696.39 1377.34 1696.14 1376.44C1698.39 1372.52 1702.15 1365.04 1699.14 1366.48C1691.93 1367.93 1689.63 1365.88 1689.38 1364.67C1695.64 1357.44 1709.8 1341.7 1716.41 1336.63C1723.02 1331.56 1723.67 1326.68 1723.17 1324.87C1716.41 1328.49 1701.54 1336.81 1696.14 1341.15C1690.73 1345.5 1688.38 1341.76 1687.88 1339.34L1717.91 1304.06C1718.41 1301.65 1718.51 1297.55 1714.91 1300.44C1711.3 1303.34 1709.9 1304.06 1709.65 1304.06L1711.15 1296.82C1708.4 1299.24 1701.84 1304.6 1697.64 1306.77C1692.39 1309.49 1688.63 1303.16 1690.88 1304.06C1692.69 1304.78 1715.66 1268.17 1726.92 1249.78V1247.07C1726.17 1247.37 1724.37 1247.79 1723.17 1247.07C1721.96 1246.34 1724.17 1238.32 1725.42 1234.4C1717.41 1242.24 1700.94 1257.02 1699.14 1253.4C1697.32 1249.75 1706.26 1237.85 1711.75 1230.54C1713.07 1228.79 1714.18 1227.31 1714.91 1226.26C1717.91 1221.91 1716.16 1220.23 1714.91 1219.92C1703.65 1222.04 1684.13 1224.63 1696.14 1218.11C1708.15 1211.6 1723.17 1173.18 1729.17 1154.79L1726.92 1160.21L1720.91 1164.74C1720.16 1163.83 1719.11 1161.48 1720.91 1159.31C1722.72 1157.14 1723.17 1148.15 1723.17 1143.93C1722.92 1145.44 1720.46 1149.72 1712.66 1154.79C1704.85 1159.85 1703.9 1156.9 1704.4 1154.79C1706.15 1149.06 1710.7 1136.69 1714.91 1133.07C1719.11 1129.46 1726.17 1106.84 1729.17 1095.98C1731.92 1073.36 1737.88 1026.86 1739.68 1021.8C1740.46 1019.6 1741.27 1018.91 1742 1019.01Z" fill="#243422"/>
<path fill-rule="evenodd" clip-rule="evenodd" d="M1454.88 824.013C1455.75 823.875 1456.73 824.858 1457.67 827.994C1459.84 835.228 1467 901.625 1470.32 933.919C1473.93 949.42 1482.43 981.714 1487.49 986.881C1492.55 992.048 1498.03 1009.7 1500.14 1017.88C1500.74 1020.9 1499.59 1025.12 1490.2 1017.88C1480.8 1010.65 1477.85 1004.54 1477.55 1002.38C1477.55 1008.41 1478.09 1021.24 1480.26 1024.34C1482.43 1027.44 1481.16 1030.8 1480.26 1032.09L1473.03 1025.63L1470.32 1017.88C1477.55 1044.15 1495.62 1099.01 1510.08 1108.31C1524.53 1117.61 1501.04 1113.9 1487.49 1110.89C1485.98 1111.32 1483.87 1113.73 1487.49 1119.93C1488.36 1121.43 1489.7 1123.55 1491.28 1126.05C1497.89 1136.49 1508.65 1153.47 1506.46 1158.69C1504.29 1163.85 1484.47 1142.75 1474.83 1131.56C1476.34 1137.16 1478.99 1148.61 1477.55 1149.64C1476.1 1150.68 1473.93 1150.07 1473.03 1149.64V1153.52C1486.58 1179.78 1514.23 1232.06 1516.4 1231.02C1519.11 1229.73 1514.59 1238.77 1508.27 1234.9C1503.21 1231.8 1495.32 1224.13 1492 1220.69L1493.81 1231.02C1493.51 1231.02 1491.82 1229.99 1487.49 1225.86C1483.15 1221.72 1483.27 1227.58 1483.87 1231.02L1520.01 1281.4C1519.41 1284.85 1516.58 1290.19 1510.08 1283.99C1503.57 1277.79 1485.68 1265.9 1477.55 1260.73C1476.94 1263.32 1477.73 1270.29 1485.68 1277.53C1493.63 1284.76 1510.68 1307.24 1518.21 1317.57C1517.91 1319.29 1515.14 1322.22 1506.46 1320.16C1502.85 1318.09 1507.36 1328.77 1510.08 1334.37C1509.77 1335.66 1508.27 1337.47 1504.65 1334.37C1501.04 1331.27 1491.7 1323.6 1487.49 1320.16C1485.98 1320.59 1483.87 1322.74 1487.49 1327.91C1487.97 1328.6 1488.98 1330.07 1490.39 1332.14C1502.06 1349.16 1541.48 1406.7 1547.12 1406.7C1552.18 1406.7 1552.24 1411.87 1551.64 1414.45L1529.05 1406.7C1527.54 1408 1525.44 1411.35 1529.05 1414.45C1532.66 1417.55 1531.76 1420.05 1530.86 1420.91L1513.69 1411.87C1508.57 1408.43 1498.15 1402.57 1497.42 1406.7C1496.7 1410.84 1498.93 1413.59 1500.14 1414.45C1498.93 1415.32 1495.62 1416 1492 1411.87C1488.39 1407.74 1480.86 1397.23 1477.55 1392.49C1474.53 1390.34 1469.77 1388.88 1474.83 1400.25C1481.16 1414.45 1515.5 1482.92 1554.35 1481.63C1585.43 1480.59 1535.38 1489.81 1506.46 1494.54C1512.79 1506.17 1529.77 1528.65 1547.12 1525.55C1564.47 1522.45 1592.3 1545.78 1604.05 1557.84C1604.95 1561.28 1603.33 1568.17 1589.59 1568.17H1559.77C1556.76 1567.74 1552.54 1568.95 1559.77 1577.22C1567 1585.48 1596.52 1618.55 1610.37 1634.05C1613.99 1638.36 1617.78 1645.68 1604.05 1640.51C1590.31 1635.35 1595.31 1649.56 1599.53 1657.31C1595.31 1655.58 1585.62 1649.81 1580.56 1640.51C1575.5 1631.21 1584.47 1659.03 1589.59 1674.1C1583.87 1676.25 1571.16 1675.91 1566.1 1657.31C1561.04 1638.7 1532.06 1609.08 1518.21 1596.59C1526.94 1612.96 1542.06 1645.16 1532.66 1643.1C1529.74 1642.45 1526.75 1641.97 1523.89 1641.51C1515.28 1640.11 1507.82 1638.9 1506.46 1634.05C1505.01 1628.89 1484.77 1618.98 1474.83 1614.68L1467.61 1603.05H1457.67C1459.62 1620.06 1461.34 1625.35 1461.03 1630.53C1460.84 1633.83 1459.82 1637.09 1457.51 1643.3V1657.31H1452.24H1452.09C1444.14 1635.93 1444.83 1633.73 1447.37 1625.66C1448.76 1621.25 1450.7 1615.08 1452.09 1603.05H1442.15L1434.92 1614.68C1424.98 1618.98 1404.74 1628.89 1403.29 1634.05C1401.94 1638.9 1394.47 1640.11 1385.86 1641.51C1383 1641.97 1380.02 1642.45 1377.09 1643.1C1367.69 1645.16 1382.81 1612.96 1391.55 1596.59C1377.69 1609.08 1348.72 1638.7 1343.65 1657.31C1338.59 1675.91 1325.88 1676.25 1320.16 1674.1C1325.28 1659.03 1334.26 1631.21 1329.2 1640.51C1324.14 1649.81 1314.44 1655.58 1310.22 1657.31C1314.44 1649.56 1319.44 1635.35 1305.7 1640.51C1291.97 1645.68 1295.76 1638.36 1299.38 1634.05C1313.23 1618.55 1342.75 1585.48 1349.98 1577.22C1357.21 1568.95 1352.99 1567.74 1349.98 1568.17H1320.16C1306.43 1568.17 1304.8 1561.28 1305.7 1557.84C1317.45 1545.78 1345.28 1522.45 1362.63 1525.55C1379.98 1528.65 1396.97 1506.17 1403.29 1494.54C1374.38 1489.81 1324.32 1480.59 1355.4 1481.63C1394.26 1482.92 1428.59 1414.45 1434.92 1400.25C1439.98 1388.88 1435.22 1390.34 1432.21 1392.49C1428.89 1397.23 1421.36 1407.74 1417.75 1411.87C1414.14 1416 1410.82 1415.32 1409.62 1414.45C1410.82 1413.59 1413.05 1410.84 1412.33 1406.7C1411.61 1402.57 1401.18 1408.43 1396.06 1411.87L1378.9 1420.91C1377.99 1420.05 1377.09 1417.55 1380.7 1414.45C1384.32 1411.35 1382.21 1408 1380.7 1406.7L1358.11 1414.45C1357.51 1411.87 1357.57 1406.7 1362.63 1406.7C1368.27 1406.7 1407.7 1349.16 1419.36 1332.14C1420.77 1330.07 1421.78 1328.6 1422.27 1327.91C1425.88 1322.74 1423.77 1320.59 1422.27 1320.16C1418.05 1323.6 1408.71 1331.27 1405.1 1334.37C1401.49 1337.47 1399.98 1335.66 1399.68 1334.37C1402.39 1328.77 1406.91 1318.09 1403.29 1320.16C1394.62 1322.22 1391.85 1319.29 1391.55 1317.57C1399.08 1307.24 1416.12 1284.76 1424.07 1277.53C1432.03 1270.29 1432.81 1263.32 1432.21 1260.73C1424.07 1265.9 1406.18 1277.79 1399.68 1283.99C1393.17 1290.19 1390.34 1284.85 1389.74 1281.4L1425.88 1231.02C1426.48 1227.58 1426.6 1221.72 1422.27 1225.86C1417.93 1229.99 1416.24 1231.02 1415.94 1231.02L1417.75 1220.69C1414.44 1224.13 1406.55 1231.8 1401.49 1234.9C1395.16 1238.77 1390.64 1229.73 1393.35 1231.02C1395.52 1232.06 1423.17 1179.78 1436.73 1153.52V1149.64C1435.82 1150.07 1433.65 1150.68 1432.21 1149.64C1430.76 1148.61 1433.41 1137.16 1434.92 1131.56C1425.28 1142.75 1405.46 1163.85 1403.29 1158.69C1401.1 1153.47 1411.86 1136.49 1418.47 1126.05C1420.05 1123.55 1421.4 1121.43 1422.27 1119.93C1425.88 1113.73 1423.77 1111.32 1422.27 1110.89C1408.71 1113.9 1385.22 1117.61 1399.68 1108.31C1414.14 1099.01 1432.21 1044.15 1439.44 1017.88L1436.73 1025.63L1429.5 1032.09C1428.59 1030.8 1427.33 1027.44 1429.5 1024.34C1431.67 1021.24 1432.21 1008.41 1432.21 1002.38C1431.91 1004.54 1428.95 1010.65 1419.56 1017.88C1410.16 1025.12 1409.01 1020.9 1409.62 1017.88C1411.73 1009.7 1417.21 992.048 1422.27 986.881C1427.33 981.714 1435.82 949.42 1439.44 933.919C1442.75 901.625 1449.92 835.228 1452.09 827.994C1453.03 824.858 1454 823.875 1454.88 824.013Z" fill="#243422"/>
<path fill-rule="evenodd" clip-rule="evenodd" d="M1648 1057.01C1649.06 1056.91 1650.25 1057.6 1651.39 1059.8C1654.02 1064.86 1662.73 1111.36 1666.76 1133.98C1671.15 1144.84 1681.47 1167.46 1687.61 1171.07C1693.76 1174.69 1700.42 1187.06 1702.98 1192.79C1703.71 1194.9 1702.32 1197.85 1690.91 1192.79C1679.49 1187.72 1675.9 1183.44 1675.54 1181.93C1675.54 1186.15 1676.2 1195.14 1678.83 1197.31C1681.47 1199.48 1679.93 1201.83 1678.83 1202.74L1670.05 1198.21L1666.76 1192.79C1675.54 1211.18 1697.49 1249.6 1715.05 1256.11C1732.62 1262.63 1704.08 1260.04 1687.61 1257.92C1685.78 1258.23 1683.22 1259.91 1687.61 1264.26C1688.67 1265.31 1690.31 1266.79 1692.23 1268.54C1700.26 1275.85 1713.32 1287.75 1710.66 1291.4C1708.03 1295.02 1683.95 1280.24 1672.25 1272.4C1674.07 1276.32 1677.29 1284.34 1675.54 1285.07C1673.78 1285.79 1671.15 1285.37 1670.05 1285.07V1287.78C1686.51 1306.17 1720.1 1342.78 1722.74 1342.06C1726.03 1341.16 1720.54 1347.49 1712.86 1344.77C1706.71 1342.6 1697.13 1337.24 1693.1 1334.82L1695.3 1342.06C1694.93 1342.06 1692.88 1341.34 1687.61 1338.44C1682.34 1335.55 1682.49 1339.65 1683.22 1342.06L1727.13 1377.34C1726.4 1379.76 1722.96 1383.5 1715.05 1379.15C1707.15 1374.81 1685.42 1366.49 1675.54 1362.87C1674.81 1364.68 1675.76 1369.56 1685.42 1374.63C1695.08 1379.7 1715.79 1395.44 1724.93 1402.67C1724.57 1403.88 1721.2 1405.93 1710.66 1404.48C1706.27 1403.04 1711.76 1410.52 1715.05 1414.44C1714.69 1415.34 1712.86 1416.61 1708.47 1414.44C1704.08 1412.26 1692.73 1406.9 1687.61 1404.48C1685.78 1404.79 1683.22 1406.29 1687.61 1409.91C1688.21 1410.4 1689.43 1411.43 1691.14 1412.87C1705.31 1424.8 1753.21 1465.1 1760.06 1465.1C1766.21 1465.1 1766.28 1468.72 1765.55 1470.53L1738.11 1465.1C1736.28 1466 1733.71 1468.36 1738.11 1470.53C1742.5 1472.7 1741.4 1474.45 1740.3 1475.05L1719.44 1468.72C1713.22 1466.3 1700.57 1462.2 1699.69 1465.1C1698.81 1467.99 1701.52 1469.92 1702.98 1470.53C1701.52 1471.13 1697.49 1471.61 1693.1 1468.72C1688.71 1465.82 1679.56 1458.46 1675.54 1455.15C1671.88 1453.64 1666.1 1452.61 1672.25 1460.57C1679.93 1470.53 1721.64 1518.47 1768.84 1517.57C1806.6 1516.85 1745.79 1523.3 1710.66 1526.62C1718.35 1534.76 1738.98 1550.5 1760.06 1548.33C1781.13 1546.16 1814.94 1562.5 1829.21 1570.95C1830.31 1573.36 1828.33 1578.18 1811.65 1578.18H1775.43C1771.77 1577.88 1766.64 1578.73 1775.43 1584.52C1784.21 1590.31 1820.06 1613.47 1836.9 1624.32C1841.29 1627.34 1845.9 1632.47 1829.21 1628.85C1812.53 1625.23 1818.6 1635.18 1823.72 1640.61C1818.6 1639.4 1806.82 1635.36 1800.67 1628.85C1794.53 1622.33 1805.43 1641.81 1811.65 1652.37C1804.7 1653.88 1789.26 1653.64 1783.11 1640.61C1776.96 1627.58 1741.76 1606.83 1724.93 1598.09C1735.54 1609.55 1753.91 1632.1 1742.5 1630.66C1738.94 1630.21 1735.31 1629.87 1731.83 1629.54C1721.38 1628.57 1712.31 1627.72 1710.66 1624.32C1708.91 1620.7 1684.32 1613.77 1672.25 1610.75L1663.46 1602.61H1651.39C1653.73 1614.35 1655.79 1618.12 1655.49 1621.7C1655.3 1624.07 1654.06 1626.35 1651.2 1630.8V1640.61H1644.8H1644.61C1634.96 1625.64 1635.8 1624.1 1638.88 1618.45C1640.57 1615.36 1642.93 1611.03 1644.61 1602.61H1632.54L1623.75 1610.75C1611.68 1613.77 1587.09 1620.7 1585.34 1624.32C1583.69 1627.72 1574.62 1628.57 1564.17 1629.54C1560.69 1629.87 1557.06 1630.21 1553.5 1630.66C1542.09 1632.1 1560.46 1609.55 1571.07 1598.09C1554.24 1606.83 1519.04 1627.58 1512.89 1640.61C1506.74 1653.64 1491.3 1653.88 1484.35 1652.37C1490.57 1641.81 1501.47 1622.33 1495.33 1628.85C1489.18 1635.36 1477.4 1639.4 1472.28 1640.61C1477.4 1635.18 1483.47 1625.23 1466.79 1628.85C1450.1 1632.47 1454.71 1627.34 1459.1 1624.32C1475.94 1613.47 1511.79 1590.31 1520.57 1584.52C1529.36 1578.73 1524.23 1577.88 1520.57 1578.18H1484.35C1467.67 1578.18 1465.69 1573.36 1466.79 1570.95C1481.06 1562.5 1514.87 1546.16 1535.94 1548.33C1557.02 1550.5 1577.65 1534.76 1585.34 1526.62C1550.21 1523.3 1489.4 1516.85 1527.16 1517.57C1574.36 1518.47 1616.07 1470.53 1623.75 1460.57C1629.9 1452.61 1624.12 1453.64 1620.46 1455.15C1616.44 1458.46 1607.29 1465.82 1602.9 1468.72C1598.51 1471.61 1594.48 1471.13 1593.02 1470.53C1594.48 1469.92 1597.19 1467.99 1596.31 1465.1C1595.44 1462.2 1582.78 1466.3 1576.56 1468.72L1555.7 1475.05C1554.6 1474.45 1553.5 1472.7 1557.89 1470.53C1562.29 1468.36 1559.72 1466 1557.89 1465.1L1530.45 1470.53C1529.72 1468.72 1529.79 1465.1 1535.94 1465.1C1542.79 1465.1 1590.69 1424.8 1604.86 1412.87C1606.57 1411.43 1607.79 1410.4 1608.39 1409.91C1612.78 1406.29 1610.22 1404.79 1608.39 1404.48C1603.27 1406.9 1591.92 1412.26 1587.53 1414.44C1583.14 1416.61 1581.31 1415.34 1580.95 1414.44C1584.24 1410.52 1589.73 1403.04 1585.34 1404.48C1574.8 1405.93 1571.43 1403.88 1571.07 1402.67C1580.21 1395.44 1600.92 1379.7 1610.58 1374.63C1620.24 1369.56 1621.19 1364.68 1620.46 1362.87C1610.58 1366.49 1588.85 1374.81 1580.95 1379.15C1573.04 1383.5 1569.6 1379.76 1568.87 1377.34L1612.78 1342.06C1613.51 1339.65 1613.66 1335.55 1608.39 1338.44C1603.12 1341.34 1601.07 1342.06 1600.7 1342.06L1602.9 1334.82C1598.87 1337.24 1589.29 1342.6 1583.14 1344.77C1575.46 1347.49 1569.97 1341.16 1573.26 1342.06C1575.9 1342.78 1609.49 1306.17 1625.95 1287.78V1285.07C1624.85 1285.37 1622.22 1285.79 1620.46 1285.07C1618.71 1284.34 1621.93 1276.32 1623.75 1272.4C1612.05 1280.24 1587.97 1295.02 1585.34 1291.4C1582.68 1287.75 1595.74 1275.85 1603.77 1268.54C1605.69 1266.79 1607.33 1265.31 1608.39 1264.26C1612.78 1259.91 1610.22 1258.23 1608.39 1257.92C1591.92 1260.04 1563.38 1262.63 1580.95 1256.11C1598.51 1249.6 1620.46 1211.18 1629.24 1192.79L1625.95 1198.21L1617.17 1202.74C1616.07 1201.83 1614.53 1199.48 1617.17 1197.31C1619.8 1195.14 1620.46 1186.15 1620.46 1181.93C1620.1 1183.44 1616.51 1187.72 1605.09 1192.79C1593.68 1197.85 1592.29 1194.9 1593.02 1192.79C1595.58 1187.06 1602.24 1174.69 1608.39 1171.07C1614.53 1167.46 1624.85 1144.84 1629.24 1133.98C1633.27 1111.36 1641.98 1064.86 1644.61 1059.8C1645.75 1057.6 1646.94 1056.91 1648 1057.01Z" fill="#243422"/>
<path fill-rule="evenodd" clip-rule="evenodd" d="M3808.5 949.009C3810.09 948.912 3811.86 949.601 3813.57 951.797C3817.5 956.864 3830.52 1003.36 3836.54 1025.98C3843.1 1036.84 3858.52 1059.46 3867.71 1063.07C3876.9 1066.69 3886.86 1079.06 3890.68 1084.79C3891.78 1086.9 3889.7 1089.85 3872.64 1084.79C3855.57 1079.72 3850.21 1075.44 3849.66 1073.93C3849.66 1078.15 3850.65 1087.14 3854.59 1089.31C3858.52 1091.48 3856.23 1093.83 3854.59 1094.74L3841.46 1090.21L3836.54 1084.79C3849.66 1103.18 3882.48 1141.6 3908.73 1148.11C3934.99 1154.63 3892.33 1152.04 3867.71 1149.92C3864.98 1150.23 3861.15 1151.91 3867.71 1156.26C3869.3 1157.31 3871.74 1158.79 3874.61 1160.54C3886.61 1167.85 3906.14 1179.75 3902.17 1183.4C3898.23 1187.02 3862.24 1172.24 3844.74 1164.4C3847.48 1168.32 3852.29 1176.34 3849.66 1177.07C3847.04 1177.79 3843.1 1177.37 3841.46 1177.07V1179.78C3866.07 1198.17 3916.28 1234.78 3920.22 1234.06C3925.14 1233.16 3916.94 1239.49 3905.45 1236.77C3896.26 1234.6 3881.93 1229.24 3875.92 1226.82L3879.2 1234.06C3878.65 1234.06 3875.59 1233.34 3867.71 1230.44C3859.84 1227.55 3860.06 1231.65 3861.15 1234.06L3926.78 1269.34C3925.69 1271.76 3920.55 1275.5 3908.73 1271.15C3896.92 1266.81 3864.43 1258.49 3849.66 1254.87C3848.57 1256.68 3849.99 1261.56 3864.43 1266.63C3878.87 1271.7 3909.83 1287.44 3923.5 1294.67C3922.95 1295.88 3917.92 1297.93 3902.17 1296.48C3895.61 1295.04 3903.81 1302.52 3908.73 1306.44C3908.19 1307.34 3905.45 1308.61 3898.89 1306.44C3892.33 1304.26 3875.37 1298.9 3867.71 1296.48C3864.98 1296.79 3861.15 1298.29 3867.71 1301.91C3868.6 1302.4 3870.43 1303.43 3872.99 1304.87C3894.17 1316.8 3965.76 1357.1 3976.01 1357.1C3985.2 1357.1 3985.31 1360.72 3984.21 1362.53L3943.19 1357.1C3940.46 1358 3936.63 1360.36 3943.19 1362.53C3949.75 1364.7 3948.11 1366.45 3946.47 1367.05L3915.3 1360.72C3906 1358.3 3887.08 1354.2 3885.76 1357.1C3884.45 1359.99 3888.5 1361.92 3890.68 1362.53C3888.5 1363.13 3882.48 1363.61 3875.92 1360.72C3869.35 1357.82 3855.68 1350.46 3849.66 1347.15C3844.2 1345.64 3835.55 1344.61 3844.74 1352.57C3856.23 1362.53 3918.58 1410.47 3989.13 1409.57C4045.58 1408.85 3954.68 1415.3 3902.17 1418.62C3913.66 1426.76 3944.5 1442.5 3976.01 1440.33C4007.51 1438.16 4058.05 1454.5 4079.38 1462.95C4081.02 1465.36 4078.07 1470.18 4053.13 1470.18H3998.98C3993.51 1469.88 3985.85 1470.73 3998.98 1476.52C4012.11 1482.31 4065.71 1505.47 4090.86 1516.32C4097.43 1519.34 4104.32 1524.47 4079.38 1520.85C4054.44 1517.23 4063.52 1527.18 4071.17 1532.61C4063.52 1531.4 4045.91 1527.36 4036.72 1520.85C4027.53 1514.33 4043.83 1533.81 4053.13 1544.37C4042.73 1545.88 4019.65 1545.64 4010.46 1532.61C4001.28 1519.58 3948.66 1498.83 3923.5 1490.09C3939.36 1501.55 3966.82 1524.1 3949.75 1522.66C3944.43 1522.21 3939.01 1521.87 3933.82 1521.54C3918.19 1520.57 3904.63 1519.72 3902.17 1516.32C3899.55 1512.7 3862.79 1505.77 3844.74 1502.75L3831.62 1494.61H3813.57C3817.01 1506.16 3820.05 1510 3819.72 1513.52C3819.49 1515.96 3817.67 1518.24 3813.28 1522.8V1532.61H3803.72H3803.43C3789.01 1517.64 3790.26 1516.1 3794.87 1510.45C3797.39 1507.36 3800.92 1503.03 3803.43 1494.61H3785.38L3772.26 1502.75C3754.21 1505.77 3717.45 1512.7 3714.83 1516.32C3712.37 1519.72 3698.81 1520.57 3683.18 1521.54C3677.99 1521.87 3672.57 1522.21 3667.25 1522.66C3650.18 1524.1 3677.64 1501.55 3693.5 1490.09C3668.34 1498.83 3615.72 1519.58 3606.54 1532.61C3597.35 1545.64 3574.27 1545.88 3563.87 1544.37C3573.17 1533.81 3589.47 1514.33 3580.28 1520.85C3571.09 1527.36 3553.48 1531.4 3545.83 1532.61C3553.48 1527.18 3562.56 1517.23 3537.62 1520.85C3512.68 1524.47 3519.57 1519.34 3526.14 1516.32C3551.29 1505.47 3604.89 1482.31 3618.02 1476.52C3631.15 1470.73 3623.49 1469.88 3618.02 1470.18H3563.87C3538.93 1470.18 3535.98 1465.36 3537.62 1462.95C3558.95 1454.5 3609.49 1438.16 3640.99 1440.33C3672.5 1442.5 3703.34 1426.76 3714.83 1418.62C3662.32 1415.3 3571.42 1408.85 3627.87 1409.57C3698.42 1410.47 3760.77 1362.53 3772.26 1352.57C3781.45 1344.61 3772.8 1345.64 3767.34 1347.15C3761.32 1350.46 3747.65 1357.82 3741.08 1360.72C3734.52 1363.61 3728.5 1363.13 3726.32 1362.53C3728.5 1361.92 3732.55 1359.99 3731.24 1357.1C3729.92 1354.2 3711 1358.3 3701.7 1360.72L3670.53 1367.05C3668.89 1366.45 3667.25 1364.7 3673.81 1362.53C3680.37 1360.36 3676.54 1358 3673.81 1357.1L3632.79 1362.53C3631.69 1360.72 3631.8 1357.1 3640.99 1357.1C3651.24 1357.1 3722.83 1316.8 3744.01 1304.87C3746.57 1303.43 3748.4 1302.4 3749.29 1301.91C3755.85 1298.29 3752.02 1296.79 3749.29 1296.48C3741.63 1298.9 3724.67 1304.26 3718.11 1306.44C3711.55 1308.61 3708.81 1307.34 3708.27 1306.44C3713.19 1302.52 3721.39 1295.04 3714.83 1296.48C3699.08 1297.93 3694.05 1295.88 3693.5 1294.67C3707.17 1287.44 3738.13 1271.7 3752.57 1266.63C3767.01 1261.56 3768.43 1256.68 3767.34 1254.87C3752.57 1258.49 3720.08 1266.81 3708.27 1271.15C3696.45 1275.5 3691.31 1271.76 3690.22 1269.34L3755.85 1234.06C3756.94 1231.65 3757.16 1227.55 3749.29 1230.44C3741.41 1233.34 3738.35 1234.06 3737.8 1234.06L3741.08 1226.82C3735.07 1229.24 3720.74 1234.6 3711.55 1236.77C3700.06 1239.49 3691.86 1233.16 3696.78 1234.06C3700.72 1234.78 3750.93 1198.17 3775.54 1179.78V1177.07C3773.9 1177.37 3769.96 1177.79 3767.34 1177.07C3764.71 1176.34 3769.52 1168.32 3772.26 1164.4C3754.76 1172.24 3718.77 1187.02 3714.83 1183.4C3710.86 1179.75 3730.39 1167.85 3742.39 1160.54C3745.26 1158.79 3747.7 1157.31 3749.29 1156.26C3755.85 1151.91 3752.02 1150.23 3749.29 1149.92C3724.67 1152.04 3682.01 1154.63 3708.27 1148.11C3734.52 1141.6 3767.34 1103.18 3780.46 1084.79L3775.54 1090.21L3762.41 1094.74C3760.77 1093.83 3758.48 1091.48 3762.41 1089.31C3766.35 1087.14 3767.34 1078.15 3767.34 1073.93C3766.79 1075.44 3761.43 1079.72 3744.36 1084.79C3727.3 1089.85 3725.22 1086.9 3726.32 1084.79C3730.14 1079.06 3740.1 1066.69 3749.29 1063.07C3758.48 1059.46 3773.9 1036.84 3780.46 1025.98C3786.48 1003.36 3799.5 956.864 3803.43 951.797C3805.14 949.601 3806.91 948.912 3808.5 949.009Z" fill="#243422"/>
<path fill-rule="evenodd" clip-rule="evenodd" d="M4001 603.763C3999.94 603.651 3998.76 604.449 3997.63 606.993C3995.01 612.86 3986.34 666.714 3982.34 692.908C3977.97 705.481 3967.71 731.675 3961.59 735.866C3955.48 740.057 3948.85 754.376 3946.31 761.012C3945.58 763.457 3946.96 766.879 3958.32 761.012C3969.67 755.145 3973.24 750.185 3973.6 748.439C3973.6 753.328 3972.95 763.736 3970.33 766.251C3967.71 768.765 3969.24 771.489 3970.33 772.537L3979.06 767.298L3982.34 761.012C3973.6 782.316 3951.76 826.811 3934.29 834.355C3916.82 841.898 3945.21 838.895 3961.59 836.45C3963.41 836.799 3965.96 838.755 3961.59 843.784C3960.54 844.998 3958.91 846.721 3957 848.747C3949.01 857.213 3936.02 870.99 3938.66 875.217C3941.28 879.408 3965.23 862.295 3976.88 853.214C3975.06 857.754 3971.86 867.044 3973.6 867.883C3975.35 868.721 3977.97 868.232 3979.06 867.883V871.026C3962.68 892.33 3929.27 934.729 3926.65 933.891C3923.37 932.843 3928.83 940.177 3936.48 937.034C3942.59 934.519 3952.13 928.303 3956.13 925.509L3953.95 933.891C3954.31 933.891 3956.35 933.053 3961.59 929.7C3966.83 926.347 3966.69 931.097 3965.96 933.891L3922.28 974.753C3923.01 977.547 3926.43 981.878 3934.29 976.849C3942.16 971.819 3963.78 962.18 3973.6 957.989C3974.33 960.085 3973.39 965.742 3963.78 971.61C3954.17 977.477 3933.57 995.708 3924.47 1004.09C3924.83 1005.49 3928.18 1007.86 3938.66 1006.19C3943.03 1004.51 3937.57 1013.17 3934.29 1017.71C3934.66 1018.76 3936.48 1020.23 3940.85 1017.71C3945.21 1015.2 3956.5 1008.98 3961.59 1006.19C3963.41 1006.53 3965.96 1008.28 3961.59 1012.47C3961 1013.04 3959.79 1014.23 3958.08 1015.9C3943.98 1029.71 3896.34 1076.38 3889.52 1076.38C3883.41 1076.38 3883.33 1080.58 3884.06 1082.67L3911.36 1076.38C3913.18 1077.43 3915.73 1080.16 3911.36 1082.67C3906.99 1085.19 3908.09 1087.21 3909.18 1087.91L3929.93 1080.58C3936.11 1077.78 3948.71 1073.03 3949.58 1076.38C3950.45 1079.74 3947.76 1081.97 3946.31 1082.67C3947.76 1083.37 3951.76 1083.93 3956.13 1080.58C3960.5 1077.22 3969.6 1068.7 3973.6 1064.86C3977.24 1063.11 3983 1061.93 3976.88 1071.15C3969.24 1082.67 3927.74 1138.2 3880.79 1137.15C3843.22 1136.32 3903.72 1143.79 3938.66 1147.63C3931.02 1157.06 3910.49 1175.29 3889.52 1172.78C3868.56 1170.26 3834.92 1189.19 3820.73 1198.97C3819.64 1201.77 3821.6 1207.35 3838.2 1207.35H3874.23C3877.87 1207 3882.97 1207.98 3874.23 1214.69C3865.5 1221.39 3829.83 1248.22 3813.08 1260.79C3808.72 1264.28 3804.13 1270.22 3820.73 1266.03C3837.33 1261.84 3831.28 1273.36 3826.19 1279.65C3831.28 1278.25 3843 1273.57 3849.12 1266.03C3855.23 1258.48 3844.39 1281.05 3838.2 1293.27C3845.11 1295.02 3860.48 1294.74 3866.59 1279.65C3872.71 1264.56 3907.72 1240.53 3924.47 1230.4C3913.91 1243.68 3895.64 1269.8 3906.99 1268.12C3910.53 1267.6 3914.14 1267.21 3917.6 1266.83C3928 1265.7 3937.02 1264.72 3938.66 1260.79C3940.41 1256.6 3964.87 1248.57 3976.88 1245.07L3985.62 1235.64H3997.63C3995.96 1245.4 3993.61 1250.4 3991.93 1253.98C3988.86 1260.53 3988.03 1262.31 3997.63 1279.65H3997.82H4004.18V1268.29C4007.01 1263.17 4008.24 1260.53 4008.45 1257.81C4008.77 1253.65 4006.71 1249.3 4004.37 1235.64H4016.38L4025.12 1245.07C4037.13 1248.57 4061.59 1256.6 4063.34 1260.79C4064.98 1264.72 4074 1265.7 4084.4 1266.83C4087.86 1267.21 4091.47 1267.6 4095.01 1268.12C4106.36 1269.8 4088.09 1243.68 4077.53 1230.4C4094.28 1240.53 4129.29 1264.56 4135.41 1279.65C4141.52 1294.74 4156.89 1295.02 4163.8 1293.27C4157.61 1281.05 4146.77 1258.48 4152.88 1266.03C4159 1273.57 4170.72 1278.25 4175.81 1279.65C4170.72 1273.36 4164.67 1261.84 4181.27 1266.03C4197.87 1270.22 4193.28 1264.28 4188.92 1260.79C4172.17 1248.22 4136.5 1221.39 4127.77 1214.69C4119.03 1207.98 4124.13 1207 4127.77 1207.35H4163.8C4180.4 1207.35 4182.36 1201.77 4181.27 1198.97C4167.08 1189.19 4133.44 1170.26 4112.48 1172.78C4091.51 1175.29 4070.98 1157.06 4063.34 1147.63C4098.28 1143.79 4158.78 1136.32 4121.21 1137.15C4074.26 1138.2 4032.76 1082.67 4025.12 1071.15C4019 1061.93 4024.76 1063.11 4028.4 1064.86C4032.4 1068.7 4041.5 1077.22 4045.87 1080.58C4050.24 1083.93 4054.24 1083.37 4055.69 1082.67C4054.24 1081.97 4051.55 1079.74 4052.42 1076.38C4053.29 1073.03 4065.89 1077.78 4072.07 1080.58L4092.82 1087.91C4093.91 1087.21 4095.01 1085.19 4090.64 1082.67C4086.27 1080.16 4088.82 1077.43 4090.64 1076.38L4117.94 1082.67C4118.67 1080.58 4118.59 1076.38 4112.48 1076.38C4105.66 1076.38 4058.02 1029.71 4043.92 1015.9C4042.21 1014.23 4041 1013.04 4040.41 1012.47C4036.04 1008.28 4038.59 1006.53 4040.41 1006.19C4045.5 1008.98 4056.79 1015.2 4061.15 1017.71C4065.52 1020.23 4067.34 1018.76 4067.71 1017.71C4064.43 1013.17 4058.97 1004.51 4063.34 1006.19C4073.82 1007.86 4077.17 1005.49 4077.53 1004.09C4068.43 995.708 4047.83 977.477 4038.22 971.61C4028.61 965.742 4027.67 960.085 4028.4 957.989C4038.22 962.18 4059.84 971.819 4067.71 976.849C4075.57 981.878 4078.99 977.547 4079.72 974.753L4036.04 933.891C4035.31 931.097 4035.17 926.347 4040.41 929.7C4045.65 933.053 4047.69 933.891 4048.05 933.891L4045.87 925.509C4049.87 928.303 4059.41 934.519 4065.52 937.034C4073.17 940.177 4078.63 932.843 4075.35 933.891C4072.73 934.729 4039.32 892.33 4022.94 871.026V867.883C4024.03 868.232 4026.65 868.721 4028.4 867.883C4030.14 867.044 4026.94 857.754 4025.12 853.214C4036.77 862.295 4060.72 879.408 4063.34 875.217C4065.98 870.99 4052.98 857.213 4045 848.747C4043.09 846.721 4041.46 844.998 4040.41 843.784C4036.04 838.755 4038.59 836.799 4040.41 836.45C4056.79 838.895 4085.18 841.898 4067.71 834.355C4050.24 826.811 4028.4 782.316 4019.66 761.012L4022.94 767.298L4031.67 772.537C4032.76 771.489 4034.29 768.765 4031.67 766.251C4029.05 763.736 4028.4 753.328 4028.4 748.439C4028.76 750.185 4032.33 755.145 4043.68 761.012C4055.04 766.879 4056.42 763.457 4055.69 761.012C4053.15 754.376 4046.52 740.057 4040.41 735.866C4034.29 731.675 4024.03 705.481 4019.66 692.908C4015.66 666.714 4006.99 612.86 4004.37 606.993C4003.24 604.449 4002.06 603.651 4001 603.763Z" fill="#243422"/>
<path fill-rule="evenodd" clip-rule="evenodd" d="M3618.88 996.009C3619.75 995.912 3620.73 996.601 3621.67 998.797C3623.84 1003.86 3631 1050.36 3634.32 1072.98C3637.93 1083.84 3646.43 1106.46 3651.49 1110.07C3656.55 1113.69 3662.03 1126.06 3664.14 1131.79C3664.74 1133.9 3663.59 1136.85 3654.2 1131.79C3644.8 1126.72 3641.85 1122.44 3641.55 1120.93C3641.55 1125.15 3642.09 1134.14 3644.26 1136.31C3646.43 1138.48 3645.16 1140.83 3644.26 1141.74L3637.03 1137.21L3634.32 1131.79C3641.55 1150.18 3659.62 1188.6 3674.08 1195.11C3688.53 1201.63 3665.04 1199.04 3651.49 1196.92C3649.98 1197.23 3647.87 1198.91 3651.49 1203.26C3652.36 1204.31 3653.7 1205.79 3655.28 1207.54C3661.89 1214.85 3672.65 1226.75 3670.46 1230.4C3668.29 1234.02 3648.47 1219.24 3638.83 1211.4C3640.34 1215.32 3642.99 1223.34 3641.55 1224.07C3640.1 1224.79 3637.93 1224.37 3637.03 1224.07V1226.78C3650.58 1245.17 3678.23 1281.78 3680.4 1281.06C3683.11 1280.16 3678.59 1286.49 3672.27 1283.77C3667.21 1281.6 3659.32 1276.24 3656 1273.82L3657.81 1281.06C3657.51 1281.06 3655.82 1280.34 3651.49 1277.44C3647.15 1274.55 3647.27 1278.65 3647.87 1281.06L3684.01 1316.34C3683.41 1318.76 3680.58 1322.5 3674.08 1318.15C3667.57 1313.81 3649.68 1305.49 3641.55 1301.87C3640.94 1303.68 3641.73 1308.56 3649.68 1313.63C3657.63 1318.7 3674.68 1334.44 3682.21 1341.67C3681.91 1342.88 3679.14 1344.93 3670.46 1343.48C3666.85 1342.04 3671.36 1349.52 3674.08 1353.44C3673.77 1354.34 3672.27 1355.61 3668.65 1353.44C3665.04 1351.26 3655.7 1345.9 3651.49 1343.48C3649.98 1343.79 3647.87 1345.29 3651.49 1348.91C3651.97 1349.4 3652.98 1350.43 3654.39 1351.87C3666.06 1363.8 3705.48 1404.1 3711.12 1404.1C3716.18 1404.1 3716.24 1407.72 3715.64 1409.53L3693.05 1404.1C3691.54 1405 3689.44 1407.36 3693.05 1409.53C3696.66 1411.7 3695.76 1413.45 3694.86 1414.05L3677.69 1407.72C3672.57 1405.3 3662.15 1401.2 3661.42 1404.1C3660.7 1406.99 3662.93 1408.92 3664.14 1409.53C3662.93 1410.13 3659.62 1410.61 3656 1407.72C3652.39 1404.82 3644.86 1397.46 3641.55 1394.15C3638.53 1392.64 3633.77 1391.61 3638.83 1399.57C3645.16 1409.53 3679.5 1457.47 3718.35 1456.57C3749.43 1455.85 3699.38 1462.3 3670.46 1465.62C3676.79 1473.76 3693.77 1489.5 3711.12 1487.33C3728.47 1485.16 3756.3 1501.5 3768.05 1509.95C3768.95 1512.36 3767.33 1517.18 3753.59 1517.18H3723.77C3720.76 1516.88 3716.54 1517.73 3723.77 1523.52C3731 1529.31 3760.52 1552.47 3774.37 1563.32C3777.99 1566.34 3781.78 1571.47 3768.05 1567.85C3754.31 1564.23 3759.31 1574.18 3763.53 1579.61C3759.31 1578.4 3749.62 1574.36 3744.56 1567.85C3739.5 1561.33 3748.47 1580.81 3753.59 1591.37C3747.87 1592.88 3735.16 1592.64 3730.1 1579.61C3725.04 1566.58 3696.06 1545.83 3682.21 1537.09C3690.94 1548.55 3706.06 1571.1 3696.66 1569.66C3693.74 1569.21 3690.75 1568.87 3687.89 1568.54C3679.28 1567.57 3671.82 1566.72 3670.46 1563.32C3669.01 1559.7 3648.77 1552.77 3638.83 1549.75L3631.61 1541.61H3621.67C3623.61 1553.42 3625.31 1557.17 3625.04 1560.77C3624.86 1563.11 3623.85 1565.39 3621.51 1569.8V1579.61H3616.24H3616.09C3608.14 1564.64 3608.83 1563.1 3611.37 1557.45C3612.76 1554.36 3614.7 1550.03 3616.09 1541.61H3606.15L3598.92 1549.75C3588.98 1552.77 3568.74 1559.7 3567.29 1563.32C3565.94 1566.72 3558.47 1567.57 3549.86 1568.54C3547 1568.87 3544.02 1569.21 3541.09 1569.66C3531.69 1571.1 3546.81 1548.55 3555.55 1537.09C3541.69 1545.83 3512.72 1566.58 3507.65 1579.61C3502.59 1592.64 3489.88 1592.88 3484.16 1591.37C3489.28 1580.81 3498.26 1561.33 3493.2 1567.85C3488.14 1574.36 3478.44 1578.4 3474.22 1579.61C3478.44 1574.18 3483.44 1564.23 3469.7 1567.85C3455.97 1571.47 3459.76 1566.34 3463.38 1563.32C3477.23 1552.47 3506.75 1529.31 3513.98 1523.52C3521.21 1517.73 3516.99 1516.88 3513.98 1517.18H3484.16C3470.43 1517.18 3468.8 1512.36 3469.7 1509.95C3481.45 1501.5 3509.28 1485.16 3526.63 1487.33C3543.98 1489.5 3560.97 1473.76 3567.29 1465.62C3538.38 1462.3 3488.32 1455.85 3519.4 1456.57C3558.26 1457.47 3592.59 1409.53 3598.92 1399.57C3603.98 1391.61 3599.22 1392.64 3596.21 1394.15C3592.89 1397.46 3585.36 1404.82 3581.75 1407.72C3578.14 1410.61 3574.82 1410.13 3573.62 1409.53C3574.82 1408.92 3577.05 1406.99 3576.33 1404.1C3575.61 1401.2 3565.18 1405.3 3560.06 1407.72L3542.9 1414.05C3541.99 1413.45 3541.09 1411.7 3544.7 1409.53C3548.32 1407.36 3546.21 1405 3544.7 1404.1L3522.11 1409.53C3521.51 1407.72 3521.57 1404.1 3526.63 1404.1C3532.27 1404.1 3571.7 1363.8 3583.36 1351.87C3584.77 1350.43 3585.78 1349.4 3586.27 1348.91C3589.88 1345.29 3587.77 1343.79 3586.27 1343.48C3582.05 1345.9 3572.71 1351.26 3569.1 1353.44C3565.49 1355.61 3563.98 1354.34 3563.68 1353.44C3566.39 1349.52 3570.91 1342.04 3567.29 1343.48C3558.62 1344.93 3555.85 1342.88 3555.55 1341.67C3563.08 1334.44 3580.12 1318.7 3588.07 1313.63C3596.03 1308.56 3596.81 1303.68 3596.21 1301.87C3588.07 1305.49 3570.18 1313.81 3563.68 1318.15C3557.17 1322.5 3554.34 1318.76 3553.74 1316.34L3589.88 1281.06C3590.48 1278.65 3590.6 1274.55 3586.27 1277.44C3581.93 1280.34 3580.24 1281.06 3579.94 1281.06L3581.75 1273.82C3578.44 1276.24 3570.55 1281.6 3565.49 1283.77C3559.16 1286.49 3554.64 1280.16 3557.35 1281.06C3559.52 1281.78 3587.17 1245.17 3600.73 1226.78V1224.07C3599.82 1224.37 3597.65 1224.79 3596.21 1224.07C3594.76 1223.34 3597.41 1215.32 3598.92 1211.4C3589.28 1219.24 3569.46 1234.02 3567.29 1230.4C3565.1 1226.75 3575.86 1214.85 3582.47 1207.54C3584.05 1205.79 3585.4 1204.31 3586.27 1203.26C3589.88 1198.91 3587.77 1197.23 3586.27 1196.92C3572.71 1199.04 3549.22 1201.63 3563.68 1195.11C3578.14 1188.6 3596.21 1150.18 3603.44 1131.79L3600.73 1137.21L3593.5 1141.74C3592.59 1140.83 3591.33 1138.48 3593.5 1136.31C3595.67 1134.14 3596.21 1125.15 3596.21 1120.93C3595.91 1122.44 3592.95 1126.72 3583.56 1131.79C3574.16 1136.85 3573.01 1133.9 3573.62 1131.79C3575.73 1126.06 3581.21 1113.69 3586.27 1110.07C3591.33 1106.46 3599.82 1083.84 3603.44 1072.98C3606.75 1050.36 3613.92 1003.86 3616.09 998.797C3617.03 996.601 3618 995.912 3618.88 996.009Z" fill="#243422"/>
<path fill-rule="evenodd" clip-rule="evenodd" d="M1041 985.031L1190.77 1082.06C1317.33 1109.37 1366.54 1308.28 1619.67 1444.81C1872.79 1581.33 2047.41 1678.66 2300.53 1760.57C2553.66 1842.49 3066 1694.95 3319.12 1585.73C3572.25 1476.52 3825.38 1312.69 3951.94 1230.77L4078.5 1148.86C4078.5 1148.86 5120 715 5120 946.5C5120 1178 5120.04 1968 5120.04 1968H3951.94C3825.38 1968 3572.25 1968 3319.12 1968C3066 1968 2812.88 1968 2559.75 1968C2306.62 1968 2053.5 1968 1800.38 1968C1547.25 1968 1294.12 1968 1167.56 1968H0V620L1041 985.031Z" fill="url(#paint0_linear_29_389)"/>
<defs>
<linearGradient id="paint0_linear_29_389" x1="2560" y1="1429.5" x2="2560" y2="1968" gradientUnits="userSpaceOnUse">
<stop stop-color="#98CB3D"/>
<stop offset="1" stop-color="#C3D3A6"/>
</linearGradient>
</defs>
</svg>